<?xml version="1.0" encoding="UTF-8"?>
<svg width="188px" height="40px" viewBox="0 0 188 40" version="1.1" xmlns="http://www.w3.org/2000/svg" xmlns:xlink="http://www.w3.org/1999/xlink">
    <title>logo-dieteren-dark</title>
    <g id="Design-System" stroke="none" stroke-width="1" fill="none" fill-rule="evenodd">
        <g transform="translate(-306.000000, -1522.000000)" fill-rule="nonzero" id="Logos">
            <g transform="translate(48.000000, 1441.000000)">
                <g id="logo-dieteren-dark" transform="translate(258.000000, 81.000000)">
                    <path d="M67.0406091,14.9707317 C60.3174619,14.9707317 55.2500508,20.2 55.2500508,27.4634146 C55.2500508,34.7268293 60.4987817,39.804878 67.6561421,39.804878 C72.5374619,39.804878 76.0875127,37.4829268 77.9818274,33.0292683 L72.0125888,31.3853659 C71.2109645,33.0292683 69.6936041,33.9512195 67.7181726,33.9512195 C65.0699492,33.9512195 63.1279188,32.2097561 62.5123858,29.3512195 L78.893198,29.3512195 L78.893198,27.8487805 C78.893198,19.8634146 73.8735025,14.9707317 67.0549239,14.9707317 M62.5076142,24.604878 C63.1231472,21.7512195 64.826599,20.4439024 67.1932995,20.4439024 C69.56,20.4439024 71.3636548,21.9073171 71.5497462,24.604878 L62.5076142,24.604878 Z" id="Shape" fill="#FFFFFF"></path>
                    <polyline id="Path" fill="#FFFFFF" points="90.6217259 8.63414634 83.5216244 8.63414634 83.5216244 15.702439 79.8284264 15.702439 79.8284264 21.8 83.5216244 21.8 83.5216244 39.0780488 90.6217259 39.0780488 90.6217259 21.8 95.9277157 21.8 95.9277157 15.702439 90.6217259 15.702439"></polyline>
                    <path d="M40.1337056,7.19512195 L43.3688325,11.2585366 L43.3688325,39.0634146 L50.8506599,39.0634146 L50.8506599,5.19512195 L41.035533,5.19512195 C40.5728019,5.19512195 40.151916,5.46903715 39.9556744,5.89744589 C39.7594327,6.32585463 39.8232429,6.83163703 40.1193909,7.19512195" id="Path" fill="#FFFFFF"></path>
                    <path d="M108.567614,14.9707317 C101.844467,14.9707317 96.7770558,20.2 96.7770558,27.4634146 C96.7770558,34.7268293 102.025787,39.804878 109.183147,39.804878 C114.064467,39.804878 117.614518,37.4829268 119.508832,33.0292683 L113.563452,31.3853659 C112.761827,33.0292683 111.244467,33.9512195 109.269036,33.9512195 C106.620812,33.9512195 104.678782,32.2097561 104.063249,29.3512195 L120.444061,29.3512195 L120.444061,27.8487805 C120.444061,19.8634146 115.424365,14.9707317 108.605787,14.9707317 M104.020305,24.604878 C104.635838,21.7512195 106.339289,20.4439024 108.70599,20.4439024 C111.07269,20.4439024 112.871574,21.9073171 113.062437,24.604878 L104.020305,24.604878 Z" id="Shape" fill="#FFFFFF"></path>
                    <path d="M130.397563,19.2829268 L130.302132,19.2829268 L130.302132,15.702439 L123.722132,15.702439 L123.722132,39.0829268 L130.879492,39.0829268 L130.879492,28.9609756 C130.879492,23.6390244 133.265279,22.2341463 136.371574,22.2341463 C136.922997,22.219238 137.471652,22.3188055 137.984365,22.5268293 L137.984365,15.697561 C137.451309,15.4411742 136.864403,15.3238553 136.276142,15.3560976 C133.728407,15.3257873 131.412991,16.8653532 130.407107,19.2585366" id="Path" fill="#FFFFFF"></path>
                    <path d="M151.325685,14.9707317 C144.602538,14.9707317 139.535127,20.2 139.535127,27.4634146 C139.535127,34.7268293 144.783858,39.804878 151.941218,39.804878 C156.817766,39.804878 160.367817,37.4829268 162.262132,33.0292683 L156.297665,31.3853659 C155.491269,33.0292683 153.97868,33.9512195 152.003249,33.9512195 C149.350254,33.9512195 147.408223,32.2097561 146.79269,29.3512195 L163.187817,29.3512195 L163.187817,27.8487805 C163.187817,19.8634146 158.168122,14.9707317 151.349543,14.9707317 M146.802234,24.604878 C147.417766,21.7512195 149.12599,20.4439024 151.49269,20.4439024 C153.859391,20.4439024 155.658274,21.9073171 155.849137,24.604878 L146.802234,24.604878 Z" id="Shape" fill="#FFFFFF"></path>
                    <path d="M180.064873,14.9756098 C176.987208,14.9756098 174.429645,16.4731707 173.150863,18.3902439 L173.060203,18.3902439 L173.060203,15.702439 L166.475431,15.702439 L166.475431,39.0780488 L173.632792,39.0780488 L173.632792,25.7707317 C173.632792,23.0097561 175.383959,21.3170732 177.607513,21.3170732 C179.644975,21.3170732 180.828325,22.6243902 180.828325,25.3804878 L180.828325,39.0780488 L187.985685,39.0780488 L187.985685,23.9268293 C187.985685,18.2195122 184.90802,14.9756098 180.074416,14.9756098" id="Path" fill="#FFFFFF"></path>
                    <path d="M10.2302538,5.19512195 L0,5.19512195 L0,39.0829268 L9.13756345,39.0829268 C20.1694416,39.0829268 28.6294416,34.7268293 28.6294416,22.1365854 C28.6294416,12.0195122 21.9969543,5.19512195 10.2111675,5.19512195 M10.5404061,32.1121951 L7.48182741,32.1121951 L7.48182741,12.195122 L10.6072081,12.195122 C17.3780711,12.195122 20.9281218,16.097561 20.9281218,22.1170732 C20.9281218,28.1365854 17.4257868,32.1121951 10.5594924,32.1121951" id="Shape" fill="#FFFFFF"></path>
                    <path d="M36.3784772,4.12195122 C36.7536026,4.34324388 36.9847113,4.75235816 36.9847113,5.19512195 C36.9847113,5.63788574 36.7536026,6.04700002 36.3784772,6.26829268 L33.0383756,8.2195122 L29.6791878,10.2439024 C29.3041782,10.4652457 28.8421441,10.465232 28.4671471,10.2438664 C28.09215,10.0225008 27.8612183,9.61341823 27.8612183,9.17073171 L27.8612183,1.23902439 C27.8612183,0.796337864 28.09215,0.38725525 28.4671471,0.165889688 C28.8421441,-0.0554758747 29.3041782,-0.0554896092 29.6791878,0.165853659 L33.0192893,2.14634146" id="Path" fill="#00AFFF"></path>
                </g>
            </g>
        </g>
    </g>
</svg>